Coordinates
version=1
nRows=19
nColumns=33
inDegrees=yes

Units are S.I. units (second, meters, Newtons, ...)
Angles are in degrees.

endheader
time	ground_thorax_rot_x	ground_thorax_rot_y	ground_thorax_rot_z	ground_thorax_tx	ground_thorax_ty	ground_thorax_tz	clav_prot_r	clav_elev_r	scapula_abduction_r	scapula_elevation_r	scapula_upward_rot_r	scapula_winging_r	shoulder_elv_r	plane_of_elev_r	axial_rot_r	elbow_flexion_r	pro_sup_r	wrist_flex_r	wrist_dev_r	clav_prot_l	clav_elev_l	scapula_abduction_l	scapula_elevation_l	scapula_upward_rot_l	scapula_winging_l	shoulder_elv_l	plane_of_elev_l	axial_rot_l	elbow_flexion_l	pro_sup_l	wrist_flex_l	wrist_dev_l
      6.33000000	     -2.22106836	      2.40931678	     12.55883699	     -0.11457462	      1.02516603	      0.01607724	     11.78104533	    -10.55072941	     24.71057972	     -6.54347456	      8.12067953	     -6.60579738	    -23.40923426	    -65.20216897	    110.83856755	    -78.56514530	   -154.84112611	      9.21384477	     -2.80678181	     13.13047065	     -6.34581614	    -17.62802078	    -13.24769666	    -30.29527803	      1.91362537	     64.41006047	    -17.70156536	      6.49218405	     58.38387334	     17.20944021	     24.34010720	     -9.95226600
      6.34000000	     -2.36048534	      2.57404255	     12.62622023	     -0.11467305	      1.02494568	      0.01579864	     12.22574949	    -10.58629955	     25.74962888	     -6.76017757	      8.64692167	     -7.02390153	    -21.22420985	    -64.08071642	    112.19244368	    -77.01325090	   -154.18374907	      7.58944303	     -1.27946927	     13.70163674	     -6.72434251	    -18.61784282	    -12.81000665	    -30.16375615	      2.36926211	     64.32162529	    -16.73307285	      7.00651317	     56.81804718	     17.43788991	     25.17516972	     -9.65367277
      6.35000000	     -2.49827555	      2.82484273	     12.59863940	     -0.11451708	      1.02474822	      0.01545950	     12.46775569	    -10.68235258	     26.58640178	     -7.11489324	      9.40630778	     -7.31981941	    -19.40148040	    -63.18079823	    113.36082464	    -75.25847555	   -153.57207315	      6.54100905	     -0.23838271	     14.19054396	     -7.00557661	    -19.45412670	    -12.40399016	    -29.90131645	      2.78180097	     64.25149991	    -15.59039298	      7.19098254	     55.05169246	     17.75889057	     25.72220522	     -9.44354087
      6.36000000	     -2.79427579	      3.06561490	     12.44665909	     -0.11400030	      1.02521386	      0.01509781	     12.69475907	    -11.23687268	     27.47858501	     -7.91533138	     10.30014447	     -7.40564704	    -18.34160480	    -62.34657771	    113.51504284	    -73.15919214	   -153.40583171	      5.99559552	      0.13512933	     14.49638101	     -7.42421969	    -19.95522744	    -11.78880546	    -29.44986017	      3.03952116	     64.42703450	    -14.80381111	      7.18981836	     53.35163614	     17.98482855	     25.84510811	     -9.16757137
      6.37000000	     -2.79562393	      3.21225125	     12.52863904	     -0.11400075	      1.02443428	      0.01484136	     13.03562505	    -10.79431177	     28.61679649	     -7.86117324	     11.27272369	     -8.08687441	    -16.46518936	    -61.29937604	    115.02839860	    -70.90242918	   -152.53600210	      5.03013386	      1.53700727	     15.11668844	     -7.48740435	    -21.02072904	    -11.60552093	    -29.23826650	      3.57885506	     63.85200980	    -13.46456847	      7.84274255	     51.39407325	     18.19821592	     26.45192213	     -9.09398556
      6.38000000	     -3.05918798	      3.40977884	     12.34388032	     -0.11340065	      1.02499242	      0.01452844	     13.25455194	    -11.35579595	     29.52834695	     -8.66683428	     12.20813788	     -8.15376584	    -15.35539975	    -60.46948669	    115.13142492	    -68.49446849	   -152.27148412	      4.50786593	      1.86645143	     15.41564398	     -7.91073928	    -21.51039795	    -10.99788200	    -28.80599944	      3.82218924	     63.99301069	    -12.70507784	      7.93571207	     49.62722476	     18.44468071	     26.52487883	     -8.81769793
      6.39000000	     -3.08228013	      3.49709324	     12.33616776	     -0.11296850	      1.02470149	      0.01418096	     13.45644022	    -11.14160591	     30.59197751	     -8.87881099	     13.41109825	     -8.66841229	    -13.87354159	    -59.65693886	    116.28132868	    -65.81499630	   -151.33368349	      3.97148022	      2.72713538	     15.88378540	     -7.98079884	    -22.30716163	    -10.77608063	    -28.51550972	      4.24381946	     63.38572340	    -11.41093920	      8.80539982	     47.57729005	     18.66595350	     26.74329689	     -8.73171057
      6.40000000	     -3.29484682	      3.74674118	     12.11125089	     -0.11243440	      1.02500187	      0.01392802	     13.75924219	    -11.50380254	     31.61928941	     -9.47402712	     14.28793127	     -8.87785061	    -12.60626808	    -58.73417893	    116.41599813	    -63.21896516	   -150.86293520	      3.47592490	      3.06083911	     16.26136808	     -8.31528673	    -22.93516911	    -10.24629765	    -28.07579020	      4.56532231	     63.46893726	    -10.56912708	      8.72833884	     45.78328234	     18.94760687	     26.81936688	     -8.53169907
      6.41000000	     -3.26277125	      3.81769997	     12.18117668	     -0.11204112	      1.02457203	      0.01365560	     14.03944027	    -11.11718157	     32.79825873	     -9.50124112	     15.43755110	     -9.53601091	    -11.17620456	    -57.88289818	    117.51679047	    -60.24789874	   -149.48950581	      3.16066098	      3.64844568	     16.78367835	     -8.33144275	    -23.82600757	    -10.08149984	    -27.80640976	      5.04746949	     62.73691191	     -9.29737555	      9.61988668	     43.68077428	     19.23547950	     26.82809898	     -8.57860496
      6.42000000	     -3.30320102	      3.96694184	     12.14866764	     -0.11168039	      1.02442214	      0.01349091	     14.44877747	    -10.96094295	     34.05686260	     -9.65128537	     16.37627378	    -10.12106270	     -9.83540991	    -56.93202521	    118.00742997	    -57.29694023	   -148.01525757	      2.89119021	      3.94722537	     17.31077095	     -8.53128675	    -24.71753032	     -9.74713571	    -27.52982128	      5.50939745	     62.39725964	     -8.30524448	     10.03230903	     41.75672598	     19.65262009	     26.72056689	     -8.66159208
      6.43000000	     -3.49378420	      4.19611597	     11.92294943	     -0.11096156	      1.02483476	      0.01324309	     14.71545880	    -11.33169301	     35.06754523	    -10.24823200	     17.30276167	    -10.30071844	     -8.76489344	    -56.24212853	    117.98244313	    -54.57502455	   -147.47493921	      2.46581417	      4.09998999	     17.65246973	     -8.81379650	    -25.28489662	     -9.26415797	    -27.08006320	      5.80679437	     62.46364182	     -7.54235032	      9.82581024	     39.97824733	     19.96545553	     26.68287081	     -8.46287542
      6.44000000	     -3.40764675	      4.30152177	     11.98472653	     -0.11069373	      1.02420078	      0.01316375	     15.18503413	    -10.73555325	     36.59758469	    -10.07797945	     18.47558441	    -11.22609065	     -7.79853947	    -55.47903277	    118.46873484	    -51.49571938	   -145.32596874	      2.63770083	      3.93432495	     18.24695508	     -8.74567824	    -26.30560382	     -9.13850581	    -26.74517335	      6.39387033	     61.70060441	     -6.35872357	     10.31634620	     37.92123795	     20.42979730	     26.18928251	     -8.75035588
      6.45000000	     -3.62588249	      4.46577928	     11.96142228	     -0.10989792	      1.02480301	      0.01296371	     15.38962332	    -11.20133795	     37.46210861	    -10.71811602	     19.32691762	    -11.28766035	     -6.97519340	    -55.02658368	    118.39942943	    -48.81685325	   -144.98440217	      2.16301580	      4.08159867	     18.51810974	     -9.06605587	    -26.74900251	     -8.66081246	    -26.36433101	      6.60830895	     61.78222682	     -5.84964340	     10.04437787	     36.15127570	     20.71261516	     26.16228863	     -8.47546779
      6.46000000	     -3.45962603	      4.58034850	     11.78327185	     -0.10935318	      1.02415283	      0.01284436	     15.86272390	    -10.47357501	     39.19626906	    -10.49635435	     20.77177642	    -12.35671887	     -6.25800560	    -54.46408927	    118.51979766	    -45.84220457	   -142.64069552	      2.56704545	      3.42929141	     19.07674631	     -8.92933317	    -27.71502024	     -8.52978527	    -25.88650797	      7.19858139	     60.92302534	     -4.61485089	     10.56429038	     34.21394569	     21.08134846	     25.28984007	     -8.79397392
      6.47000000	     -3.66167688	      4.73538254	     11.63805446	     -0.10843169	      1.02478270	      0.01269334	     16.05590461	    -10.88025736	     40.07282960	    -11.08068432	     21.65602366	    -12.43695771	     -5.51116592	    -54.13850516	    118.46836182	    -43.45000596	   -142.30065812	      2.13778879	      3.56094126	     19.33679609	     -9.19383165	    -28.14879197	     -8.09088583	    -25.47917018	      7.42061013	     61.02920581	     -4.11053550	     10.26365891	     32.56066620	     21.32744846	     25.23812433	     -8.52900316
      6.48000000	     -3.58003125	      4.79083950	     11.47073206	     -0.10750526	      1.02470914	      0.01244461	     16.30416254	    -10.62331895	     41.39295066	    -11.22249626	     23.02102150	    -13.03917369	     -4.95219443	    -54.04354427	    118.68761754	    -40.95085905	   -140.81441134	      2.21436819	      3.12742039	     19.67748453	     -9.08789474	    -28.74862957	     -7.93431340	    -24.98451794	      7.81000176	     60.31783304	     -3.11858001	     10.76083299	     30.81025452	     21.44634963	     24.50256204	     -8.55832940
      6.49000000	     -3.69041672	      5.02086817	     11.44397661	     -0.10666639	      1.02510084	      0.01233653	     16.55626720	    -10.89904903	     42.17718550	    -11.60302020	     23.61431499	    -13.17706710	     -4.37359329	    -53.96078975	    118.74345586	    -39.29090267	   -140.54388146	      1.90651712	      3.19672781	     19.96234553	     -9.34091748	    -29.22674266	     -7.54745940	    -24.66545484	      8.05281415	     60.36046050	     -2.64232460	      9.94187181	     29.25124428	     21.71922455	     24.48985908	     -8.31531657
      6.50000000	     -3.54870404	      5.04342731	     11.23868522	     -0.10592601	      1.02474693	      0.01220815	     16.96772165	    -10.35682326	     43.72251743	    -11.45913772	     24.89540250	    -14.06070072	     -3.98880341	    -53.92740280	    118.98007257	    -37.33726432	   -138.61400191	      2.10059533	      2.66276235	     20.34636007	     -9.14805470	    -29.91744910	     -7.42530278	    -24.08694562	      8.52137678	     59.52162099	     -1.70984033	     10.45058562	     27.55341112	     21.65888590	     23.24717469	     -8.44821340
      6.51000000	     -3.60650303	      5.30392643	     11.07129612	     -0.10497162	      1.02513069	      0.01213873	     17.19422002	    -10.50734073	     44.41880806	    -11.70552729	     25.40822752	    -14.24034192	     -3.54408977	    -53.92961645	    119.05417017	    -36.31026285	   -138.31250074	      1.89412700	      2.74732310	     20.58937414	     -9.38781815	    -30.32843928	     -7.04915178	    -23.75886703	      8.72810720	     59.57265816	     -1.21727829	      9.70597845	     26.23713360	     21.86587509	     23.19349543	     -8.23472213
